<?xml version="1.0" encoding="iso-8859-1"?>
<!-- Generator: Adobe Illustrator 18.0.0, SVG Export Plug-In . SVG Version: 6.00 Build 0)  -->
<!DOCTYPE svg PUBLIC "-//W3C//DTD SVG 1.1//EN" "http://www.w3.org/Graphics/SVG/1.1/DTD/svg11.dtd">
<svg version="1.1" id="Capa_1" xmlns="http://www.w3.org/2000/svg" xmlns:xlink="http://www.w3.org/1999/xlink" x="0px" y="0px"
	 viewBox="0 0 301.324 301.324" style="enable-background:new 0 0 301.324 301.324;" xml:space="preserve">
<g>
	<g>
		<path d="M293.649,271.385c0,0-5.91-84.787-5.918-84.869c-0.158-1.53-3.729-33.842-24.988-54.732
			c0.039-0.31,0.064-0.624,0.064-0.944V23.608C262.807,10.591,252.217,0,239.2,0h-18.043c-13.018,0-23.609,10.591-23.609,23.608
			V130.84c0,0.32,0.027,0.633,0.066,0.943c-21.262,20.89-24.832,53.204-24.99,54.733c-0.008,0.081-5.914,84.814-5.914,84.814
			c-0.746,9.704,1.32,17.265,6.143,22.473c6.963,7.52,17.473,7.52,20.926,7.52h72.799c3.453,0,13.963,0,20.926-7.52
			C292.325,288.596,294.391,281.035,293.649,271.385z M212.954,138.34h9.725v28.348h-29.656
			C196.77,156.886,202.94,145.819,212.954,138.34z M237.678,138.34h9.721c9.969,7.453,16.137,18.532,19.895,28.348h-29.615V138.34z
			 M212.547,23.608c0-4.747,3.861-8.608,8.609-8.608H239.2c4.746,0,8.607,3.862,8.607,8.608v99.731h-35.26V23.608z M276.496,283.612
			c-1.713,1.85-4.865,2.711-9.92,2.711h-72.799c-5.055,0-8.207-0.862-9.92-2.711c-2.326-2.513-2.477-7.44-2.189-11.185l5.889-84.474
			c0.057-0.494,0.35-2.822,1.07-6.267h83.082c0.732,3.461,1.033,5.794,1.09,6.273l5.891,84.521
			C278.973,276.173,278.823,281.1,276.496,283.612z"/>
		<path d="M143.507,187.144c-0.136-0.448-11.28-26.411-29.339-36.994V60.106c0-13.912-11.317-25.23-25.229-25.23H69.079
			c-13.912,0-25.23,11.318-25.23,25.23v89.706c-20.754,12.293-29.711,36.884-29.847,37.331c-4.194,10.538-6.474,22.146-6.474,34.127
			c0,21.307,6.931,41.194,19.6,56.475c-0.142,0.974-0.212,1.96-0.212,2.953c0,11.374,9.253,20.626,20.626,20.626h62.425
			c11.373,0,20.627-9.253,20.627-20.626c0-0.993-0.071-1.979-0.213-2.953c12.668-15.281,19.6-35.168,19.6-56.475
			C149.98,209.289,147.701,197.682,143.507,187.144z M124.17,181.83H86.508v-18.405h20.532
			C113.869,168.173,119.658,174.476,124.17,181.83z M58.848,60.106c0-5.641,4.589-10.23,10.23-10.23h19.859
			c5.641,0,10.23,4.589,10.23,10.23v88.318h-40.32V60.106z M50.467,163.425h21.041v18.405H33.339
			C37.85,174.476,43.638,168.173,50.467,163.425z M116.617,270.708c-1.962,2.131-2.521,5.201-1.437,7.887
			c0.274,0.679,0.413,1.386,0.413,2.102c0,3.103-2.524,5.626-5.627,5.626H47.541c-3.103,0-5.626-2.524-5.626-5.626
			c0-0.716,0.139-1.423,0.412-2.1c1.085-2.686,0.527-5.758-1.436-7.889c-11.67-12.679-18.364-30.699-18.364-49.439
			c0-8.515,1.361-16.779,3.887-24.439h45.093v65.506c0,4.142,3.358,7.5,7.5,7.5c4.142,0,7.5-3.358,7.5-7.5V196.83h44.585
			c2.525,7.66,3.887,15.925,3.887,24.439C134.98,240.01,128.287,258.029,116.617,270.708z"/>
	</g>
</g>
<g>
</g>
<g>
</g>
<g>
</g>
<g>
</g>
<g>
</g>
<g>
</g>
<g>
</g>
<g>
</g>
<g>
</g>
<g>
</g>
<g>
</g>
<g>
</g>
<g>
</g>
<g>
</g>
<g>
</g>
</svg>
