<?xml version='1.0' encoding='iso-8859-1'?>
<svg version="1.1" xmlns="http://www.w3.org/2000/svg" viewBox="0 0 470 470" xmlns:xlink="http://www.w3.org/1999/xlink" enable-background="new 0 0 470 470">
  <g>
    <path d="m440.017,221.755c4.143,0 7.5-3.357 7.5-7.5v-13.254c0-16.126-13.12-29.246-29.246-29.246h-30.932l-12.83-33.735c-4.021-10.572-16.03-18.854-27.342-18.854h-104.667v-15.548c25.176-3.648 44.582-25.364 44.582-51.535 0-28.719-23.364-52.083-52.082-52.083-28.719,0-52.083,23.364-52.083,52.082 0,26.172 19.406,47.888 44.583,51.535v15.548h-104.667c-11.312,0-23.321,8.282-27.342,18.854l-12.83,33.735h-30.932c-16.126,0-29.246,13.12-29.246,29.246v13.254c0,4.143 3.357,7.5 7.5,7.5h40.35v15h-40.35c-4.143,0-7.5,3.357-7.5,7.5v13.254c0,16.126 13.12,29.246 29.246,29.246h28.604v153.746c0,16.267 13.233,29.5 29.5,29.5h250.334c16.267,0 29.5-13.233 29.5-29.5v-153.745h28.604c16.126,0 29.246-13.12 29.246-29.246v-13.254c0-4.143-3.357-7.5-7.5-7.5h-40.35v-15h40.35zm-167.935-169.673c0,20.447-16.635,37.083-37.082,37.083s-37.083-16.636-37.083-37.083 16.636-37.082 37.083-37.082 37.082,16.635 37.082,37.082zm160.435,205.427c0,7.855-6.391,14.246-14.246,14.246h-28.604v-20h42.85v5.754zm-57.85,182.991c0,7.995-6.505,14.5-14.5,14.5h-250.334c-7.995,0-14.5-6.505-14.5-14.5v-188.745h279.334v188.745zm-337.184-182.991v-5.754h42.85v20h-28.604c-7.855,0-14.246-6.391-14.246-14.246zm47.85-20.754v-15h299.334v15h-299.334zm-47.85-35.754c0-7.855 6.391-14.246 14.246-14.246h28.604v20h-42.85v-5.754zm85.35-66.836h224.334c5.144,0 11.493,4.379 13.322,9.187l14.178,37.281v26.122h-279.334v-26.122l14.178-37.281c1.829-4.808 8.178-9.187 13.322-9.187zm309.684,66.836v5.754h-42.85v-20h28.604c7.855,0 14.246,6.391 14.246,14.246z"/>
    <path d="m119.833,186.755h30c4.143,0 7.5-3.357 7.5-7.5s-3.357-7.5-7.5-7.5h-30c-4.143,0-7.5,3.357-7.5,7.5s3.357,7.5 7.5,7.5z"/>
    <path d="m179.833,186.755h170.334c4.143,0 7.5-3.357 7.5-7.5s-3.357-7.5-7.5-7.5h-170.334c-4.143,0-7.5,3.357-7.5,7.5s3.357,7.5 7.5,7.5z"/>
    <path d="m235,59.582c4.143,0 7.5-3.357 7.5-7.5v-14.582c0-4.143-3.357-7.5-7.5-7.5s-7.5,3.357-7.5,7.5v14.582c0,4.143 3.357,7.5 7.5,7.5z"/>
    <path d="M235,371.551c-18.871,0-34.225,15.354-34.225,34.225S216.129,440,235,440s34.225-15.354,34.225-34.225   S253.871,371.551,235,371.551z M215.775,405.775c0-10.601,8.624-19.225,19.225-19.225s19.225,8.624,19.225,19.225   S245.601,425,235,425S215.775,416.376,215.775,405.775z"/>
  </g>
</svg>
